<?xml version="1.0" standalone="no"?>
<!DOCTYPE svg PUBLIC "-//W3C//DTD SVG 20010904//EN"
 "http://www.w3.org/TR/2001/REC-SVG-20010904/DTD/svg10.dtd">
<svg version="1.0" xmlns="http://www.w3.org/2000/svg"
 width="173.000000pt" height="173.000000pt" viewBox="0 0 173.000000 173.000000"
 preserveAspectRatio="xMidYMid meet">
<metadata>
Created by potrace 1.10, written by Peter Selinger 2001-2011
</metadata>
<g transform="translate(0.000000,173.000000) scale(0.100000,-0.100000)"
fill="#000000" stroke="none">
<path d="M745 1649 c-49 -29 -112 -64 -140 -78 -27 -14 -52 -29 -55 -32 -3 -3
-12 -8 -20 -12 -8 -3 -37 -20 -65 -37 -49 -29 -121 -69 -200 -109 -22 -12 -58
-33 -80 -49 l-40 -28 0 -429 c-1 -237 1 -368 2 -293 l4 137 77 -47 c43 -26 91
-55 107 -64 l30 -17 5 -130 c3 -72 4 -131 3 -131 -4 0 -70 38 -110 63 -63 40
-103 58 -103 47 0 -5 4 -10 9 -10 5 0 87 -46 183 -102 228 -133 240 -140 245
-135 3 4 -62 47 -72 47 -1 0 -32 17 -66 39 l-64 38 -3 131 -3 130 81 -48 c45
-27 95 -55 111 -62 l29 -13 0 -132 c0 -121 2 -135 20 -153 12 -12 31 -25 43
-30 12 -6 31 -16 42 -22 41 -27 91 -55 108 -61 39 -15 11 5 -88 60 l-104 58
-1 133 0 132 37 -24 c21 -13 71 -42 111 -65 l72 -42 0 -122 c0 -127 6 -147 42
-147 18 0 166 79 198 105 8 7 49 30 90 51 41 21 102 57 135 79 34 22 96 58
139 80 43 22 95 54 115 71 l36 32 3 383 c2 274 -1 395 -9 422 -12 36 -53 76
-101 97 -13 6 -45 24 -73 40 -27 16 -56 29 -64 30 -8 0 -24 8 -35 19 -42 37
-436 251 -463 251 -16 0 -68 -23 -118 -51z m231 -155 l-115 -63 -110 64 c-78
44 -107 65 -98 72 6 5 37 22 67 38 30 16 74 41 98 55 l43 27 115 -65 114 -65
-114 -63z m-265 1 c51 -30 101 -57 111 -61 10 -3 18 -8 18 -12 0 -4 -50 -34
-111 -68 l-110 -61 -109 61 c-60 34 -109 63 -110 66 0 3 48 33 108 66 59 34
108 62 108 63 1 1 44 -24 95 -54z m577 -47 c23 -12 42 -24 42 -27 0 -4 -50
-33 -111 -67 l-111 -61 -109 61 c-60 34 -109 63 -109 66 1 3 49 32 108 66
l107 61 70 -39 c39 -21 89 -49 113 -60z m-799 -102 l112 -64 -113 -64 c-62
-34 -115 -62 -118 -61 -3 1 -49 27 -102 57 -53 31 -101 56 -107 56 -27 0 -2
19 97 76 59 34 109 62 113 63 3 0 56 -28 118 -63z m504 -10 c48 -26 87 -51 87
-54 -1 -4 -49 -34 -108 -68 l-108 -60 -113 64 -112 65 68 37 c37 21 88 49 113
63 38 23 47 24 65 13 11 -7 59 -34 108 -60z m471 10 l116 -63 -109 -62 c-60
-33 -114 -61 -120 -61 -8 0 -98 49 -214 117 -5 3 35 30 90 60 54 30 102 58
108 64 12 12 -2 18 129 -55z m-734 -137 c60 -34 110 -63 110 -64 0 -7 -213
-125 -223 -125 -15 1 -206 113 -210 123 -1 5 186 118 210 126 1 1 52 -26 113
-60z m488 0 c59 -34 108 -63 110 -64 4 -4 -210 -125 -220 -125 -16 0 -217 115
-215 123 2 5 200 122 215 126 1 1 50 -27 110 -60z m-1030 32 c15 -10 62 -37
104 -61 l78 -42 0 -128 0 -128 -110 61 -109 62 -1 128 c0 70 3 127 6 127 3 0
18 -8 32 -19z m1392 -109 l0 -127 -27 -12 c-16 -7 -65 -35 -110 -62 l-83 -49
0 128 0 127 103 61 c56 33 105 60 110 61 4 1 7 -56 7 -127z m-970 -264 l0
-128 -37 24 c-21 13 -71 42 -110 65 l-73 42 0 129 0 129 110 -66 110 -66 0
-129z m730 133 l0 -129 -102 -58 c-57 -33 -106 -60 -110 -62 -5 -2 -8 53 -8
122 l0 125 73 42 c39 23 88 52 107 65 19 12 36 23 38 23 1 1 2 -57 2 -128z
m-488 -9 l-3 -128 -67 -37 c-37 -20 -86 -48 -109 -62 l-43 -26 0 130 0 130 83
45 c45 25 91 52 102 60 37 29 40 20 37 -112z m181 42 l67 -38 0 -129 0 -128
-42 26 c-24 14 -73 42 -110 63 l-68 37 0 128 0 129 43 -25 c23 -13 72 -42 110
-63z m-721 -137 l58 -32 0 -128 0 -129 -47 27 c-27 15 -76 43 -110 62 l-63 35
0 129 0 129 53 -30 c28 -17 78 -45 109 -63z m1256 -170 c-7 -4 -56 -32 -108
-62 l-95 -53 -3 121 c-3 140 -16 120 123 200 l90 53 3 -126 c2 -94 0 -127 -10
-133z m-1015 31 l57 -33 0 -128 0 -129 -42 25 c-24 13 -73 42 -110 63 l-68 38
0 129 0 129 53 -31 c28 -17 78 -46 110 -63z m408 37 c118 -68 126 -74 114 -80
-5 -3 -55 -32 -110 -64 l-100 -59 -40 24 c-22 14 -70 42 -107 62 -37 20 -68
39 -67 42 0 3 48 33 107 66 59 34 108 62 108 63 1 0 44 -24 95 -54z m379 -72
l0 -128 -58 -32 c-31 -18 -81 -46 -109 -63 l-53 -30 0 127 0 128 108 62 c59
33 108 61 110 62 1 1 2 -56 2 -126z m-548 -106 l58 -32 0 -128 0 -129 -52 31
c-29 17 -79 46 -110 63 l-58 33 0 128 0 127 53 -30 c28 -17 78 -45 109 -63z
m308 -34 l-1 -128 -109 -62 -110 -61 0 126 0 127 108 62 c59 34 108 62 110 62
1 1 2 -56 2 -126z m478 0 l-3 -127 -107 -62 -108 -62 0 126 0 127 103 61 c56
34 106 62 110 63 4 0 6 -56 5 -126z m-240 -139 l-3 -125 -107 -64 -108 -64 0
129 0 128 73 41 c39 22 86 49 102 60 17 11 34 20 38 20 4 1 6 -56 5 -125z
m-238 -138 l0 -124 -72 -42 c-40 -24 -90 -54 -110 -67 l-38 -23 0 129 0 128
103 61 c56 33 105 60 110 61 4 1 7 -55 7 -123z"/>
</g>
</svg>
