<?xml version="1.0" encoding="UTF-8"?>
<svg id="Layer_1" data-name="Layer 1" xmlns="http://www.w3.org/2000/svg" viewBox="0 0 3000 3000">
  <defs>
    <style>
      .cls-1 {
        fill: #814d9f;
      }

      .cls-1, .cls-2, .cls-3, .cls-4 {
        stroke-width: 0px;
      }

      .cls-2 {
        fill: #c5e6db;
      }

      .cls-3 {
        fill: #e1ede9;
      }

      .cls-4 {
        fill: #71c6a6;
      }
    </style>
  </defs>
  <rect class="cls-1" width="3000" height="3000"/>
  <polygon class="cls-1" points="591.12 975.26 591.12 2024.74 1500 2549.48 2408.88 2024.74 2408.88 975.26 1500 450.52 591.12 975.26"/>
  <g>
    <path class="cls-2" d="M1503.44,1522.34c-3,1.83-5.97,3.73-9.01,5.49-59.13,34.27-118.27,68.52-177.41,102.78-26.36,15.27-52.72,30.54-79.08,45.82-1.28.74-2.54,1.53-4.38,2.64,90.42,52.29,180.31,104.26,270.46,156.39,89.91-51.99,179.89-104.01,270.28-156.28-1.16-.8-1.94-1.42-2.79-1.92-39.08-22.67-78.17-45.32-117.25-67.97-48.86-28.32-97.72-56.62-146.58-84.95-.99-.58-1.88-1.33-2.82-2h-1.41Z"/>
    <path class="cls-2" d="M924.3,1160.44c2.31-1.33,4.05-2.34,5.81-3.33,63.13-35.67,126.27-71.35,189.4-107.02,25.79-14.57,51.61-29.12,77.35-43.78,2.48-1.41,4.26-1.49,6.82-.03,75.01,42.57,150.07,85.05,225.12,127.54,14.24,8.06,28.47,16.14,42.71,24.21,1.22.69,2.42,1.44,4.03,2.4-1.49.93-2.62,1.71-3.81,2.38-29.52,16.73-59.05,33.44-88.57,50.16-59.88,33.91-119.77,67.82-179.65,101.73-.42.24-.86.43-1.24.72-1.74,1.32-3.29,1.18-5.22.06-9.19-5.35-18.47-10.53-27.72-15.78-46.85-26.6-93.7-53.19-140.55-79.79-33.86-19.23-67.73-38.45-101.59-57.68-.82-.46-1.6-.99-2.89-1.79Z"/>
    <path class="cls-2" d="M2075.2,1161.26c-9.27,5.28-17.86,10.2-26.48,15.09-66.08,37.51-132.16,75.01-198.23,112.52-15.79,8.96-31.63,17.86-47.34,26.96-2.58,1.49-4.41,1.27-6.84-.11-57.76-32.78-115.56-65.49-173.35-98.21-32.12-18.19-64.24-36.36-96.36-54.55-.8-.46-1.55-1.01-2.65-1.74,1.24-.78,2.19-1.44,3.2-2.01,61.64-34.92,123.28-69.82,184.92-104.73,27.75-15.72,55.5-31.45,83.25-47.18.21-.12.46-.18.63-.33,2.18-1.83,4.13-1.32,6.49.02,38.44,21.81,76.93,43.52,115.41,65.26,50.86,28.73,101.71,57.46,152.57,86.19,1.43.81,2.83,1.67,4.78,2.83Z"/>
    <path class="cls-2" d="M1822.67,992.05c1.16-.76,2-1.37,2.9-1.88,60.5-34.26,121-68.51,181.5-102.76,29-16.42,58.02-32.83,86.97-49.32,2.24-1.28,3.85-1.35,6.17-.03,71.35,40.3,142.74,80.52,214.14,120.75,18.32,10.32,36.64,20.63,54.95,30.95,1.1.62,2.15,1.32,3.67,2.25-1.43.93-2.37,1.6-3.36,2.16-71.48,40.57-142.96,81.14-214.45,121.71-17.77,10.08-35.55,20.14-53.25,30.34-2.48,1.43-4.27,1.46-6.81.02-83.68-47.37-167.41-94.65-251.14-141.94-6.03-3.41-12.08-6.79-18.1-10.21-1.01-.57-1.96-1.24-3.2-2.03Z"/>
    <path class="cls-2" d="M1774.37,991.31c-1.64.98-2.73,1.67-3.85,2.3-77.77,44.04-155.53,88.07-233.3,132.11-11.75,6.65-23.52,13.26-35.2,20.03-2.17,1.26-3.77,1.21-5.9,0-56.31-31.96-112.65-63.87-168.99-95.77-32.95-18.66-65.91-37.3-98.87-55.95-1.33-.75-2.63-1.56-4.36-2.59,1.16-.79,1.95-1.41,2.81-1.9,45.97-25.98,91.95-51.95,137.93-77.93,43.48-24.57,86.94-49.15,130.42-73.73.42-.24.9-.39,1.26-.68,1.86-1.54,3.56-1.18,5.55-.03,10.46,6.02,20.98,11.93,31.48,17.86,58.46,33.02,116.92,66.04,175.37,99.06,20.7,11.69,41.39,23.41,62.08,35.11,1.03.59,2.04,1.21,3.58,2.12Z"/>
    <path class="cls-2" d="M1175.63,990.55c-1.29.79-2.26,1.42-3.27,1.99-60.44,34.14-120.88,68.27-181.32,102.41-29.23,16.51-58.47,33-87.64,49.61-2.71,1.54-4.62,1.64-7.44.03-37.43-21.4-74.96-42.64-112.46-63.92-51.74-29.36-103.47-58.72-155.2-88.09-1.01-.57-1.97-1.24-3.22-2.04,1.24-.75,2.14-1.32,3.06-1.84,74.61-42.08,149.22-84.15,223.83-126.22,15.3-8.62,30.63-17.19,45.89-25.88,2.21-1.26,3.84-1.36,6.17-.04,74.28,42.15,148.61,84.22,222.93,126.3,15.07,8.53,30.14,17.09,45.2,25.63,1.03.59,2.04,1.2,3.48,2.05Z"/>
    <path class="cls-2" d="M1522.22,822.55c92.14-52.06,183.46-103.65,274.87-155.3,91.69,51.67,183.26,103.29,274.87,154.92-1.95,2.06-266.43,152.26-274.44,155.9-91.45-51.66-183.04-103.4-275.3-155.51Z"/>
    <path class="cls-2" d="M1199.97,666.65c91.42,51.65,182.7,103.23,274.62,155.16-92.19,52.08-183.79,103.83-275.53,155.65-91.43-51.77-182.77-103.5-274.16-155.25,2.08-2.19,266.65-151.75,275.07-155.56Z"/>
    <path class="cls-2" d="M1223.11,653.4c3.74-2.14,7.04-4.05,10.36-5.92,62.23-35.08,124.46-70.16,186.7-105.24,24.66-13.9,49.35-27.76,73.97-41.74,2.56-1.45,4.45-1.61,7.14-.09,79.04,44.66,158.13,89.22,237.22,133.8,9.89,5.57,19.78,11.13,29.67,16.7,1.24.7,2.45,1.42,4.22,2.45-1.39.89-2.38,1.61-3.45,2.21-18.93,10.69-37.88,21.37-56.81,32.06-68.76,38.84-137.51,77.69-206.27,116.52-2.68,1.52-5.47,2.85-8.22,4.27-2.63-1.4-5.29-2.76-7.88-4.22-87.78-49.59-175.55-99.19-263.32-148.79-1-.57-1.97-1.19-3.33-2.01Z"/>
    <path class="cls-4" d="M625.78,1012.21c.89.69,1.71,1.51,2.67,2.06,67.93,38.95,135.87,77.89,203.81,116.83,19.79,11.34,39.54,22.75,59.39,33.98,2.41,1.36,3.15,2.85,3.15,5.53-.04,56.85,0,113.7.05,170.55.03,44.61.08,89.22.12,133.83,0,1.37,0,2.73,0,4.56-1.42-.73-2.36-1.16-3.24-1.67-77.54-44.63-155.08-89.28-232.62-133.92-10.09-5.81-20.14-11.68-30.28-17.38-2.03-1.14-2.72-2.45-2.72-4.74-.02-22.71-.18-45.43-.23-68.14-.11-45.9-.15-91.81-.26-137.71-.09-34.37-.26-68.73-.4-103.09,0-.23-.08-.46-.13-.69.24,0,.47,0,.71,0Z"/>
    <path class="cls-3" d="M1484.53,1183.57c-90.73,52.25-180.87,104.16-270.9,156v313.35c1.55-.82,2.68-1.37,3.76-2,81.81-46.89,163.62-93.78,245.43-140.68,6.53-3.74,13.01-7.57,19.61-11.17,2.24-1.22,3.06-2.62,3.05-5.21-.14-33.66-.15-67.33-.19-100.99-.04-30.49-.06-60.97-.1-91.46-.02-16.36-.02-32.72-.09-49.08-.1-21.77-.25-43.54-.39-65.31,0-.92-.1-1.84-.19-3.44Z"/>
    <path class="cls-4" d="M1189.26,1649.24c-90.54-52.14-180.37-103.87-270.27-155.64v-312.58c1.4.73,2.54,1.28,3.62,1.9,49.99,28.65,99.98,57.31,149.96,85.97,37.95,21.76,75.88,43.55,113.87,65.23,2.27,1.3,3.03,2.68,3.03,5.22-.09,58.62-.08,117.25-.12,175.88-.02,42.97-.07,85.94-.11,128.9,0,1.4,0,2.8,0,5.12Z"/>
    <path class="cls-4" d="M1213.49,1689.67c1.54.83,2.76,1.44,3.94,2.13,58.28,33.57,116.56,67.15,174.84,100.72,29.65,17.08,59.28,34.19,88.98,51.17,2.59,1.48,3.5,3.1,3.48,6.07-.17,34.25-.17,68.51-.25,102.76-.04,18.6-.17,37.19-.23,55.79-.15,48.38-.28,96.75-.42,145.13,0,1.17,0,2.34,0,3.42-1.58.82-2.41-.33-3.35-.87-25.87-14.92-51.74-29.86-77.59-44.81-62.29-36.04-124.57-72.09-186.88-108.08-2.29-1.32-3.27-2.69-3.26-5.48.14-39.55.12-79.1.17-118.65.03-25.19.1-50.38.15-75.57.08-36.72.16-73.45.24-110.17,0-1.02.1-2.05.17-3.55Z"/>
    <path class="cls-4" d="M919.35,1831.33v-311.13c1.19.64,2.38,1.25,3.53,1.91,27.21,15.67,54.41,31.33,81.61,47.01,60.61,34.93,121.22,69.87,181.87,104.74,2.08,1.2,2.97,2.4,2.97,4.9-.11,37.19-.1,74.39-.15,111.58-.03,29.66-.09,59.32-.15,88.98-.07,34.72-.15,69.44-.24,104.16,0,1.01-.11,2.03-.2,3.64-89.93-52.04-179.44-103.83-269.24-155.79Z"/>
    <path class="cls-4" d="M1212.83,2337.62c0-103.1,0-206.19,0-309.99,1.53.77,2.64,1.26,3.69,1.86,22.29,12.89,44.58,25.79,66.87,38.69,31.85,18.44,63.71,36.87,95.56,55.31,33.89,19.62,67.76,39.28,101.7,58.81,2.4,1.38,3.15,2.88,3.12,5.55-.17,16.95-.15,33.9-.21,50.85-.11,31.66-.27,63.33-.35,94.99-.1,35.31-.11,70.63-.21,105.94-.05,17.18-.2,34.37-.32,51.55,0,.93-.1,1.85-.15,2.8-2.7-.72-263.87-152.19-269.69-156.38Z"/>
    <path class="cls-4" d="M626.32,1351.26c90.05,51.88,179.36,103.32,268.83,154.86v310.95c-.99-.49-1.99-.91-2.93-1.45-32.16-18.6-64.32-37.22-96.48-55.83-55.26-31.97-110.52-63.95-165.82-95.86-2.13-1.23-2.82-2.61-2.81-5.01.04-24.95,0-49.91-.08-74.86-.18-59.91-.38-119.81-.57-179.72-.05-16.24-.09-32.49-.13-48.73,0-1.16,0-2.32,0-4.35Z"/>
    <path class="cls-4" d="M919.43,1857.52c90.17,52.19,179.59,103.96,269.16,155.8v310.05c-1.08-.48-1.92-.76-2.67-1.2-23.7-13.75-47.39-27.51-71.07-41.28-39.65-23.05-79.29-46.1-118.94-69.15-24.4-14.18-48.77-28.4-73.22-42.5-2.35-1.36-3.14-2.84-3.13-5.54.07-42.96.03-85.93,0-128.89-.04-57.32-.08-114.65-.13-171.97,0-1.52,0-3.03,0-5.33Z"/>
    <path class="cls-4" d="M895.75,2153.43c-4.12-2.35-7.57-4.3-11-6.29-65.27-37.95-130.53-75.9-195.8-113.85-19.21-11.17-38.41-22.38-57.67-33.47-2.31-1.33-3.24-2.75-3.24-5.51.02-41.79-.1-83.58-.18-125.37-.04-19.19-.06-38.38-.13-57.56-.15-39.9-.34-79.81-.5-119.71,0-.81.07-1.62.14-2.99,1.37.71,2.48,1.23,3.54,1.84,30.54,17.67,61.07,35.34,91.6,53.02,44.58,25.8,89.16,51.61,133.74,77.41,12.11,7.01,24.19,14.08,36.37,20.97,2.27,1.28,2.97,2.75,2.95,5.29-.1,16.6-.01,33.2,0,49.79.03,49.68.03,99.36.07,149.04.02,34.14.08,68.28.13,102.42,0,1.4,0,2.81,0,5Z"/>
    <path class="cls-4" d="M1513.86,1496.85c11.54,6.58,23.1,13.13,34.63,19.73,77.85,44.62,155.7,89.25,233.55,133.88,1.3.74,2.62,1.46,4.56,2.53,0-1.84,0-3.07,0-4.31.02-42.73.03-85.46.07-128.2.03-26.96.1-53.91.17-80.87.07-31.9.12-63.8.3-95.7.02-2.92-.75-4.59-3.4-6.11-71.69-41.18-143.32-82.46-214.95-123.72-16.61-9.57-33.22-19.14-49.83-28.69-.97-.56-2.02-1-3.58-1.76,0,3.8,0,7.05,0,10.31-.06,32.73-.11,65.45-.19,98.18-.05,22.95-.12,45.91-.24,68.86-.1,19.3-.28,38.6-.42,57.9-.06,8.94-.1,17.89-.19,26.83-.01,1.27-.29,2.54-.45,3.81,0,15.78,0,31.55,0,47.33Z"/>
    <path class="cls-3" d="M1516.51,2157.74c0-1.9,0-3.07,0-4.23-.06-10.71-.14-21.42-.17-32.13-.14-54.85-.27-109.7-.41-164.55-.04-17.3-.06-34.61-.13-51.91-.08-18.48-.15-36.95-.38-55.43-.03-2.69.75-4.16,3.13-5.53,51.3-29.45,102.54-59,153.8-88.52,36.89-21.25,73.78-42.49,110.67-63.74,1.11-.64,2.23-1.24,3.82-2.12.08,1.46.2,2.56.2,3.67.03,11.06.05,22.13.06,33.19.02,48.5.03,96.99.06,145.49.03,41.79.05,83.58.2,125.36.01,3.01-.97,4.56-3.53,6.04-67.83,39.15-135.62,78.38-203.41,117.61-19.95,11.54-39.9,23.09-59.85,34.63-1.09.63-2.22,1.19-4.06,2.18Z"/>
    <path class="cls-3" d="M2081.24,1181.03v312.59c-89.96,51.8-179.69,103.47-269.93,155.44-.09-1.79-.2-3.02-.2-4.24-.03-40.14-.04-80.28-.08-120.42-.03-31.78-.11-63.56-.16-95.34-.05-29.78-.06-59.56-.22-89.34-.02-2.86.92-4.36,3.38-5.77,74.61-42.69,149.18-85.46,223.76-128.21,13.47-7.72,26.94-15.43,40.41-23.13.9-.51,1.84-.96,3.04-1.58Z"/>
    <path class="cls-3" d="M1517.47,2494.69c0-1.77,0-2.8,0-3.83-.06-31.55-.11-63.09-.19-94.64-.05-22.01-.16-44.02-.23-66.03-.12-37.08-.24-74.15-.35-111.23-.03-10.59.03-21.19-.12-31.78-.03-2.29.66-3.53,2.69-4.7,45.03-25.97,90.01-52.02,135-78.07,42.64-24.69,85.28-49.39,127.93-74.07,1.48-.86,3.02-1.62,4.83-2.58.11,1.12.23,1.78.24,2.45.04,2.59.07,5.18.07,7.77.06,48.38.11,96.76.17,145.13.07,50.03.17,100.05.22,150.08,0,5.26.83,4-3.95,6.79-54.68,31.83-109.39,63.61-164.09,95.4-32.74,19.03-65.48,38.06-98.22,57.09-1.1.64-2.22,1.23-4.03,2.23Z"/>
    <path class="cls-3" d="M2081.17,1520.08c0,6.68,0,12.67,0,18.67,0,3.06-.06,6.12-.06,9.18-.02,57.1-.04,114.19-.07,171.29-.02,36.14-.11,72.28-.05,108.43,0,2.71-.8,4.16-3.16,5.53-49.51,28.56-98.97,57.22-148.44,85.85-38.17,22.09-76.35,44.17-114.54,66.24-.98.57-2.01,1.03-3.34,1.7-.07-1.41-.16-2.43-.16-3.45-.03-7.06-.06-14.13-.06-21.19-.02-55.57-.03-111.13-.06-166.7-.02-38.73-.04-77.46-.2-116.19-.01-3.01.95-4.53,3.53-6.01,62.93-36.14,125.79-72.39,188.67-108.62,24.87-14.33,49.73-28.65,74.6-42.97.89-.51,1.82-.96,3.34-1.77Z"/>
    <path class="cls-3" d="M2374.93,1012.65c.02,104.41-.58,208.27-.86,312.33-89.42,51.51-178.82,102.99-268.71,154.74-.09-1.86-.2-2.99-.2-4.12.02-39.55.04-79.1.08-118.65.02-19.07.11-38.13.14-57.2.09-43.08.19-86.16.18-129.24,0-2.69.77-4.15,3.16-5.52,87.27-49.93,174.49-99.94,261.73-149.94,1.29-.74,2.62-1.42,4.47-2.41Z"/>
    <path class="cls-3" d="M2080.93,1857.54c0,1.83,0,2.98,0,4.13-.02,44.85-.03,89.7-.05,134.55-.02,26.01-.05,52.03-.08,78.04-.04,29.78-.14,59.56-.09,89.34,0,2.86-.94,4.37-3.39,5.79-66.43,38.53-132.81,77.14-199.19,115.74-21.15,12.29-42.29,24.59-63.44,36.88-.78.45-1.61.82-2.94,1.5,0-1.73,0-2.97,0-4.22,0-12.01.02-24.01,0-36.02-.05-40.73-.11-81.45-.17-122.18-.05-30.37-.1-60.74-.15-91.11-.03-17.66,0-35.31-.14-52.97-.02-2.55.73-3.97,3-5.28,51.54-29.74,103.03-59.56,154.54-89.38,36.03-20.86,72.06-41.71,108.09-62.57,1.11-.64,2.23-1.25,4.02-2.25Z"/>
    <path class="cls-3" d="M2104.92,1817.23c0-2.15,0-3.55,0-4.96.02-47.56.04-95.11.07-142.67.03-51.68.08-103.35.12-155.03,0-1.29.23-2.63,0-3.88-.68-3.65,1.22-5.37,4.18-7.06,37.85-21.69,75.64-43.5,113.44-65.28,48.71-28.06,97.42-56.12,146.14-84.17,1.5-.86,3.02-1.69,4.94-2.76.11,1.41.23,2.29.23,3.17-.03,24.95-.05,49.91-.14,74.86-.11,30.72-.34,61.44-.43,92.16-.11,36.49-.12,72.98-.18,109.47-.02,9.3-.16,18.6-.01,27.9.04,2.51-.9,3.77-2.95,4.96-40.75,23.51-81.46,47.07-122.18,70.63-46.42,26.86-92.83,53.72-139.24,80.57-1.09.63-2.22,1.17-3.97,2.09Z"/>
    <path class="cls-3" d="M2372.98,1688.57c-.31,103.58-.62,206.43-.93,309.38-89.09,51.79-178.01,103.5-267.54,155.55-.05-1.9-.12-3.23-.12-4.56.04-46.03.08-92.05.13-138.08.04-36.02.09-72.04.15-108.06.03-18.6.16-37.19.11-55.79,0-2.57.86-3.92,3.09-5.21,44.62-25.74,89.19-51.57,133.77-77.38,42.44-24.57,84.89-49.14,127.33-73.7,1.09-.63,2.22-1.2,4-2.15Z"/>
  </g>
</svg>